<svg width="20" height="20" viewBox="0 0 20 20" fill="none" xmlns="http://www.w3.org/2000/svg">
<path d="M13.3 18.3C12.8 18.3 12.5 17.9 12.5 17.5V15.8C12.5 14.4 11.4 13.3 10 13.3H4.2C2.8 13.3 1.7 14.4 1.7 15.8V17.5C1.7 18 1.3 18.3 0.9 18.3C0.5 18.3 0 18 0 17.5V15.8C0 13.5 1.9 11.6 4.2 11.6H10C12.3 11.6 14.2 13.5 14.2 15.8V17.5C14.2 18 13.8 18.3 13.3 18.3ZM11.2 5.80001C11.2 3.50001 9.3 1.60001 7 1.60001C4.7 1.60001 2.9 3.50001 2.9 5.80001C2.9 8.10001 4.8 10 7.1 10C9.4 10 11.2 8.10001 11.2 5.80001ZM9.6 5.80001C9.6 7.20001 8.5 8.30001 7.1 8.30001C5.7 8.30001 4.6 7.20001 4.6 5.80001C4.6 4.40001 5.7 3.30001 7.1 3.30001C8.5 3.30001 9.6 4.50001 9.6 5.80001ZM16.4 11.4L19.7 8.10001C20 7.80001 20 7.20001 19.7 6.90001C19.4 6.60001 18.8 6.60001 18.5 6.90001L15.8 9.60001L14.7 8.50001C14.4 8.20001 13.8 8.20001 13.5 8.50001C13.2 8.80001 13.2 9.40001 13.5 9.70001L15.2 11.4C15.4 11.6 15.6 11.6 15.8 11.6C16.1 11.7 16.3 11.6 16.4 11.4Z" fill="#0A0F26"/>
</svg>
